# xmcd CD database file
#
# Track frame offsets:
#	150
#	21912
#	35235
#	49084
#	68408
#	88857
#	102481
#	122555
#	135729
#	157710
#	170047
#	180359
#	190746
#	201433
#	213545
#
# Disc length: 2984 seconds
#
# Revision: 1
# Processed by: cddbd v1.5.2PL0 Copyright (c) Steve Scherf et al.
# Submitted via: CDex 1.99.1
#
DISCID=d30ba60f
DTITLE=Waters, Muddy (1915-1983) - Muddy Waters 1960 - Chicago Blues Legend CD 8
DYEAR=1960
DGENRE=Blues
TTITLE0=I Got My Brand On You (1960 Live At Newport)
TTITLE1=I'm Your Hoochie Coochie Man (1960 Live At Newport)
TTITLE2=Baby Please Don't Go (1960 Live At Newport)
TTITLE3=Soon Forgotten (1960 Live At Newport)
TTITLE4=Tiger In Your Tank (1960 Live At Newport)
TTITLE5=I Feel so Good (1960 Live At Newport)
TTITLE6=I've Got My Mojo Working (Part One) (1960 Live At Newport)
TTITLE7=I've Got My Mojo Working (Part Two) (1960 Live At Newport)
TTITLE8=Goodbye Newport Blues (1960 Live At Newport)
TTITLE9=Hey Hey
TTITLE10=Tell Me Baby
TTITLE11=Meanest Woman
TTITLE12=I Got My Brand On You
TTITLE13=Soon Forgotten (Sudio Version)
TTITLE14=Tige In Your Tank (1960 Studio Version)
EXTD=YEAR: 1960
EXTT0=
EXTT1=
EXTT2=
EXTT3=
EXTT4=
EXTT5=
EXTT6=
EXTT7=
EXTT8=
EXTT9=
EXTT10=
EXTT11=
EXTT12=
EXTT13=
EXTT14=
PLAYORDER=
